{"title":"Dodge City  (Western 1939)  Errol Flyn, Olivia De Havilland &amp;amp","uid":9242947,"size":475452217,"categoryP":"video","categoryS":"movies","magnet":"?xt=urn:btih:657d839c835c1fecf8d03fbde05fa87a37623faf&amp;dn=Dodge+City++%28Western+1939%29++Errol+Flyn%2C+Olivia+De+Havilland+%26amp&amp;tr=udp%3A%2F%2Ftracker.openbittorrent.com%3A80&amp;tr=udp%3A%2F%2Fopen.demonii.com%3A1337&amp;tr=udp%3A%2F%2Ftracker.coppersurfer.tk%3A6969&amp;tr=udp%3A%2F%2Fexodus.desync.com%3A6969","seeders":4,"leechers":2,"uploader":"BurtonW","files":1,"time":1385314600,"description":"Very good quality!\n\nNo subtitles.\n\n\nStoryline\n\nDodge City. A wide-open cattle town run by Jeff Surrett. Even going on a children's Sunday outing is not a safe thing to do. What the place needs is a fearless honest Marshal. A guy like Wade Hatton, who helped bring the railroad in. It may not help that he fancies Abbie Irving, who won't have anything to do with him since he had to shoot her brother. But that's the West.\n\n\nTechnical info:\n\n\nGeneral:\n\nComplete name                  : Dodge City  (Western 1939)  Errol Flynn, Olivia De Havilland &amp; Michael Curtiz.mp4\nFormat                         : MPEG-4\nFormat profile                 : Base Media / Version 2\nCodec ID                       : mp42\nFile size                      : 453 MiB\nDuration                       : 1h 44mn\nOverall bit rate mode          : Variable\nOverall bit rate               : 609 Kbps\nEncoded date                   : UTC 2013-09-17 21:02:00\nTagged date                    : UTC 2013-09-17 21:52:37\n\n\nVideo:\n\nID                             : 1\nFormat                         : AVC\nFormat/Info                    : Advanced Video Codec\nFormat profile                 : &lt;a class=&quot;__cf_email__&quot; href=&quot;/cdn-cgi/l/email-protection&quot; data-cfemail=&quot;cc81ada5a28c80f8e2fc&quot;&gt;[email&amp;#160;protected]&lt;/a&gt;&lt;script cf-hash='f9e31' type=&quot;text/javascript&quot;&gt;\n/* &lt;![CDATA[ */!function(){try{var t=&quot;currentScript&quot;in document?document.currentScript:function(){for(var t=document.getElementsByTagName(&quot;script&quot;),e=t.length;e--;)if(t[e].getAttribute(&quot;cf-hash&quot;))return t[e]}();if(t&amp;&amp;t.previousSibling){var e,r,n,i,c=t.previousSibling,a=c.getAttribute(&quot;data-cfemail&quot;);if(a){for(e=&quot;&quot;,r=parseInt(a.substr(0,2),16),n=2;a.length-n;n+=2)i=parseInt(a.substr(n,2),16)^r,e+=String.fromCharCode(i);e=document.createTextNode(e),c.parentNode.replaceChild(e,c)}}}catch(u){}}();/* ]]&gt; */&lt;/script&gt;\nFormat settings, CABAC         : Yes\nFormat settings, ReFrames      : 4 frames\nCodec ID                       : avc1\nCodec ID/Info                  : Advanced Video Coding\nDuration                       : 1h 44mn\nBit rate mode                  : Variable\nBit rate                       : 464 Kbps\nWidth                          : 544 pixels\nHeight                         : 400 pixels\nDisplay aspect ratio           : 4:3\nFrame rate mode                : Variable\nFrame rate                     : 23.976 fps\nMinimum frame rate             : 23.968 fps\nMaximum frame rate             : 23.981 fps\nColor space                    : YUV\nChroma subsampling             : 4:2:0\nBit depth                      : 8 bits\nScan type                      : Progressive\nBits/(Pixel*Frame)             : 0.089\nStream size                    : 344 MiB (76%)\nWriting library                : x264 core 130 r2273 b3065e6\nEncoded date                   : UTC 2013-09-17 21:02:00\nTagged date                    : UTC 2013-09-17 21:52:37\nColor primaries                : BT.601 NTSC\nTransfer characteristics       : BT.709\nMatrix coefficients            : BT.601\n\nAudio:\n\nID                             : 2\nFormat                         : AAC\nFormat/Info                    : Advanced Audio Codec\nFormat profile                 : LC\nCodec ID                       : 40\nDuration                       : 1h 44mn\nBit rate mode                  : Variable\nBit rate                       : 144 Kbps\nMaximum bit rate               : 182 Kbps\nChannel(s)                     : 1 channel\nChannel positions              : Front: C\nSampling rate                  : 48.0 KHz\nCompression mode               : Lossy\nDelay relative to video        : 83ms\nStream size                    : 106 MiB (23%)\nEncoded date                   : UTC 2013-09-17 21:02:00\nTagged date                    : UTC 2013-09-17 21:52:36\n\n\n\n","torrent":{"xt":"urn:btih:657d839c835c1fecf8d03fbde05fa87a37623faf","amp;dn":"Dodge+City++%28Western+1939%29++Errol+Flyn%2C+Olivia+De+Havilland+%26amp","amp;tr":["udp%3A%2F%2Ftracker.openbittorrent.com%3A80","udp%3A%2F%2Fopen.demonii.com%3A1337","udp%3A%2F%2Ftracker.coppersurfer.tk%3A6969","udp%3A%2F%2Fexodus.desync.com%3A6969"],"infoHash":"657d839c835c1fecf8d03fbde05fa87a37623faf","infoHashBuffer":{"type":"Buffer","data":[101,125,131,156,131,92,31,236,248,208,63,189,224,95,168,122,55,98,63,175]},"announce":[],"urlList":[]}}